<?xml version="1.0" encoding="utf-8"?>
<!-- Generator: Adobe Illustrator 18.0.0, SVG Export Plug-In . SVG Version: 6.00 Build 0)  -->
<!DOCTYPE svg PUBLIC "-//W3C//DTD SVG 1.1//EN" "http://www.w3.org/Graphics/SVG/1.1/DTD/svg11.dtd">
<svg version="1.1" id="Layer_1" xmlns="http://www.w3.org/2000/svg" xmlns:xlink="http://www.w3.org/1999/xlink" x="0px" y="0px"
	 viewBox="0 0 25 25" enable-background="new 0 0 25 25" xml:space="preserve">
<rect fill="#008272" width="24" height="5"/>
<g>
	<path fill="#008272" d="M23,2v21H2V2H23 M25,0H0v25h25V0L25,0z"/>
</g>
<rect x="3" y="7" fill="#008272" width="4" height="4"/>
<rect x="8" y="7" fill="#008272" width="4" height="4"/>
<rect x="13" y="7" fill="#008272" width="4" height="4"/>
<rect x="18" y="7" fill="#008272" width="4" height="4"/>
<rect x="3" y="12" fill="#008272" width="4" height="4"/>
<rect x="8" y="12" fill="#008272" width="4" height="4"/>
<rect x="13" y="12" fill="#008272" width="4" height="4"/>
<rect x="18" y="12" fill="#008272" width="4" height="4"/>
<rect x="3" y="17" fill="#008272" width="4" height="4"/>
<rect x="8" y="17" fill="#008272" width="4" height="4"/>
<rect x="13" y="17" fill="#008272" width="4" height="4"/>
<rect x="18" y="17" fill="#008272" width="4" height="4"/>
</svg>
